HIERARCHY
ROOT m_avg_root
{
	OFFSET 0.000000 0.000000 0.000000
	CHANNELS 6 Xposition Yposition Zposition Xrotation Yrotation Zrotation
	JOINT m_avg_Pelvis
	{
		OFFSET -0.002174 0.972724 0.028584
		CHANNELS 6 Xposition Yposition Zposition Xrotation Yrotation Zrotation
		JOINT m_avg_L_Hip
		{
			OFFSET 0.058581 -0.082280 -0.017664
			CHANNELS 6 Xposition Yposition Zposition Xrotation Yrotation Zrotation
			JOINT m_avg_L_Knee
			{
				OFFSET 0.043451 -0.386469 0.008037
				CHANNELS 6 Xposition Yposition Zposition Xrotation Yrotation Zrotation
				JOINT m_avg_L_Ankle
				{
					OFFSET -0.014790 -0.426874 -0.037428
					CHANNELS 6 Xposition Yposition Zposition Xrotation Yrotation Zrotation
					JOINT m_avg_L_Foot
					{
						OFFSET 0.041054 -0.060286 0.122042
						CHANNELS 6 Xposition Yposition Zposition Xrotation Yrotation Zrotation
						End Site
						{
							OFFSET 0.000000 0.142177 0.000000
						}
					}
				}
			}
		}
		JOINT m_avg_R_Hip
		{
			OFFSET -0.060310 -0.090513 -0.013543
			CHANNELS 6 Xposition Yposition Zposition Xrotation Yrotation Zrotation
			JOINT m_avg_R_Knee
			{
				OFFSET -0.043257 -0.383688 -0.004843
				CHANNELS 6 Xposition Yposition Zposition Xrotation Yrotation Zrotation
				JOINT m_avg_R_Ankle
				{
					OFFSET 0.019056 -0.420046 -0.034562
					CHANNELS 6 Xposition Yposition Zposition Xrotation Yrotation Zrotation
					JOINT m_avg_R_Foot
					{
						OFFSET -0.034840 -0.062106 0.130323
						CHANNELS 6 Xposition Yposition Zposition Xrotation Yrotation Zrotation
						End Site
						{
							OFFSET 0.000000 0.148510 0.000000
						}
					}
				}
			}
		}
		JOINT m_avg_Spine1
		{
			OFFSET 0.004439 0.124404 -0.038385
			CHANNELS 6 Xposition Yposition Zposition Xrotation Yrotation Zrotation
			JOINT m_avg_Spine2
			{
				OFFSET 0.004488 0.137956 0.026820
				CHANNELS 6 Xposition Yposition Zposition Xrotation Yrotation Zrotation
				JOINT m_avg_Spine3
				{
					OFFSET -0.002265 0.056032 0.002855
					CHANNELS 6 Xposition Yposition Zposition Xrotation Yrotation Zrotation
					JOINT m_avg_Neck
					{
						OFFSET -0.013390 0.211635 -0.033468
						CHANNELS 6 Xposition Yposition Zposition Xrotation Yrotation Zrotation
						JOINT m_avg_Head
						{
							OFFSET 0.010113 0.088937 0.050410
							CHANNELS 6 Xposition Yposition Zposition Xrotation Yrotation Zrotation
							End Site
							{
								OFFSET 0.000000 0.102729 0.000000
							}
						}
					}
					JOINT m_avg_L_Collar
					{
						OFFSET 0.071702 0.114000 -0.018898
						CHANNELS 6 Xposition Yposition Zposition Xrotation Yrotation Zrotation
						JOINT m_avg_L_Shoulder
						{
							OFFSET 0.122921 0.045205 -0.019046
							CHANNELS 6 Xposition Yposition Zposition Xrotation Yrotation Zrotation
							JOINT m_avg_L_Elbow
							{
								OFFSET 0.255332 -0.015649 -0.022946
								CHANNELS 6 Xposition Yposition Zposition Xrotation Yrotation Zrotation
								JOINT m_avg_L_Wrist
								{
									OFFSET 0.265709 0.012698 -0.007375
									CHANNELS 6 Xposition Yposition Zposition Xrotation Yrotation Zrotation
									JOINT m_avg_L_Hand
									{
										OFFSET 0.086691 -0.010636 -0.015594
										CHANNELS 6 Xposition Yposition Zposition Xrotation Yrotation Zrotation
										End Site
										{
											OFFSET 0.000000 0.088722 0.000000
										}
									}
								}
							}
						}
					}
					JOINT m_avg_R_Collar
					{
						OFFSET -0.082954 0.112472 -0.023707
						CHANNELS 6 Xposition Yposition Zposition Xrotation Yrotation Zrotation
						JOINT m_avg_R_Shoulder
						{
							OFFSET -0.113228 0.046853 -0.008472
							CHANNELS 6 Xposition Yposition Zposition Xrotation Yrotation Zrotation
							JOINT m_avg_R_Elbow
							{
								OFFSET -0.260127 -0.014369 -0.031269
								CHANNELS 6 Xposition Yposition Zposition Xrotation Yrotation Zrotation
								JOINT m_avg_R_Wrist
								{
									OFFSET -0.269108 0.006794 -0.006027
									CHANNELS 6 Xposition Yposition Zposition Xrotation Yrotation Zrotation
									JOINT m_avg_R_Hand
									{
										OFFSET -0.088754 -0.008652 -0.010107
										CHANNELS 6 Xposition Yposition Zposition Xrotation Yrotation Zrotation
										End Site
										{
											OFFSET 0.000000 0.089745 0.000000
										}
									}
								}
							}
						}
					}
				}
			}
		}
	}
}
MOTION
Frames: 4
Frame Time: 0.041667
-0.195672 -0.090931 2.579474 -0.000000 0.000000 -0.000000 -0.197846 0.881792 2.608058 -175.463544 -4.074341 0.348427 0.058581 -0.082280 -0.017664 8.211558 2.356232 -8.372845 0.043451 -0.386469 0.008037 18.929181 -8.781573 -5.074904 -0.014790 -0.426875 -0.037428 -1.159264 13.680545 -1.270530 0.041054 -0.060286 0.122043 -12.721837 5.993149 7.046033 -0.060310 -0.090513 -0.013542 -8.286515 6.978860 -1.497116 -0.043257 -0.383688 -0.004843 51.868269 10.645011 -6.776267 0.019055 -0.420045 -0.034562 9.016660 -13.254279 14.167569 -0.034840 -0.062106 0.130323 -8.379338 15.791459 -20.999234 0.004439 0.124403 -0.038385 4.973301 -4.099737 1.373061 0.004488 0.137956 0.026821 -0.226944 -3.318784 0.891452 -0.002265 0.056032 0.002854 5.330535 -4.199112 -2.304698 -0.013390 0.211636 -0.033467 0.560014 -17.244775 10.526645 0.010113 0.088937 0.050410 16.591248 -13.757066 9.459661 0.071703 0.114000 -0.018898 -3.527080 3.307476 -14.536786 0.122921 0.045205 -0.019046 -8.433205 -10.194172 -31.559982 0.255332 -0.015649 -0.022946 2.464897 -46.123841 16.489601 0.265709 0.012698 -0.007375 -0.363464 -4.310268 4.984936 0.086691 -0.010636 -0.015594 -6.122782 -2.650297 -10.428040 -0.082954 0.112473 -0.023707 3.219932 3.743806 10.671695 -0.113228 0.046853 -0.008472 19.621971 15.021176 41.487874 -0.260127 -0.014369 -0.031269 36.697729 62.125960 -21.553560 -0.269109 0.006794 -0.006027 3.081798 6.252732 -1.276209 -0.088753 -0.008652 -0.010107 -4.807858 5.997484 9.527166 
-0.195672 -0.090931 2.579474 -0.000000 0.000000 -0.000000 -0.197846 0.881792 2.608058 -175.463544 -4.074341 0.348427 0.058581 -0.082280 -0.017664 8.372038 2.321929 -8.460333 0.043451 -0.386469 0.008037 18.774867 -8.686826 -5.045649 -0.014790 -0.426875 -0.037428 -1.312715 13.774906 -1.128190 0.041054 -0.060287 0.122043 -12.725845 6.065876 6.941842 -0.060310 -0.090513 -0.013542 -8.449870 6.908681 -1.481084 -0.043257 -0.383688 -0.004842 52.318368 10.605738 -6.546320 0.019056 -0.420046 -0.034562 9.127662 -13.198530 14.291747 -0.034840 -0.062105 0.130324 -8.296525 15.934674 -21.113976 0.004439 0.124403 -0.038385 4.936790 -4.200360 1.379574 0.004488 0.137957 0.026820 -0.284946 -3.366018 0.890940 -0.002264 0.056033 0.002855 5.180650 -4.289929 -2.186571 -0.013390 0.211636 -0.033467 0.189913 -17.788077 10.899428 0.010113 0.088937 0.050409 16.582053 -13.962240 9.839288 0.071702 0.114000 -0.018898 -3.740876 3.085930 -14.625262 0.122921 0.045205 -0.019046 -8.541259 -10.258764 -32.035633 0.255332 -0.015649 -0.022947 2.570639 -46.291146 16.766863 0.265709 0.012698 -0.007375 -0.459490 -4.365823 4.925658 0.086690 -0.010636 -0.015595 -6.109822 -2.637750 -10.438890 -0.082954 0.112472 -0.023706 3.123263 4.027581 10.534811 -0.113228 0.046853 -0.008471 19.733875 15.128553 40.887479 -0.260128 -0.014370 -0.031269 37.281372 62.571520 -22.111207 -0.269108 0.006793 -0.006027 3.254330 6.356282 -1.367123 -0.088754 -0.008652 -0.010107 -4.797911 5.992112 9.522550 
-0.195672 -0.090931 2.579474 -0.000000 0.000000 -0.000000 -0.197846 0.881792 2.608058 -175.463544 -4.074341 0.348427 0.058581 -0.082280 -0.017664 8.406955 2.220997 -8.407761 0.043451 -0.386470 0.008037 18.659722 -8.638501 -5.013793 -0.014790 -0.426875 -0.037428 -1.439981 13.844290 -1.008415 0.041054 -0.060286 0.122043 -12.769302 6.185568 6.883491 -0.060310 -0.090513 -0.013542 -8.654299 6.708108 -1.556597 -0.043257 -0.383688 -0.004843 52.897667 10.504758 -6.222839 0.019056 -0.420045 -0.034562 9.175454 -13.193946 14.460040 -0.034840 -0.062106 0.130324 -8.217397 16.082350 -21.272872 0.004439 0.124403 -0.038385 4.907843 -4.257404 1.390515 0.004488 0.137957 0.026820 -0.367590 -3.361986 0.916785 -0.002265 0.056032 0.002855 5.047456 -4.333216 -1.978986 -0.013390 0.211635 -0.033468 -0.330161 -18.281899 11.394247 0.010113 0.088937 0.050409 16.470538 -14.101693 10.361497 0.071702 0.114000 -0.018898 -3.968585 2.894307 -14.725067 0.122921 0.045205 -0.019047 -8.724607 -10.313968 -32.603399 0.255332 -0.015649 -0.022947 2.688482 -46.620194 17.206486 0.265709 0.012698 -0.007375 -0.639882 -4.429399 4.901948 0.086691 -0.010636 -0.015594 -6.076678 -2.613916 -10.452238 -0.082954 0.112473 -0.023707 3.017038 4.286956 10.335230 -0.113228 0.046853 -0.008472 19.822650 15.138802 40.151738 -0.260127 -0.014369 -0.031269 38.045663 63.166955 -23.038073 -0.269108 0.006793 -0.006027 3.436858 6.473932 -1.511502 -0.088754 -0.008651 -0.010107 -4.773912 5.981777 9.502595 
-0.195672 -0.090931 2.579474 -0.000000 0.000000 -0.000000 -0.197846 0.881792 2.608058 -175.463544 -4.074341 0.348427 0.058581 -0.082280 -0.017664 8.374591 2.081088 -8.242723 0.043451 -0.386470 0.008038 18.552262 -8.644834 -4.987222 -0.014790 -0.426874 -0.037428 -1.512649 13.885719 -0.913195 0.041054 -0.060286 0.122043 -12.830885 6.323675 6.864770 -0.060310 -0.090513 -0.013542 -8.880264 6.413979 -1.680994 -0.043257 -0.383688 -0.004843 53.612040 10.379536 -5.827027 0.019055 -0.420045 -0.034562 9.198177 -13.209816 14.651297 -0.034840 -0.062106 0.130323 -8.144189 16.237036 -21.455306 0.004439 0.124404 -0.038385 4.876464 -4.280001 1.391297 0.004489 0.137956 0.026820 -0.448461 -3.322839 0.985108 -0.002265 0.056033 0.002856 4.942239 -4.342320 -1.666319 -0.013390 0.211636 -0.033468 -0.962046 -18.690384 11.997954 0.010113 0.088937 0.050410 16.282882 -14.184696 11.030925 0.071702 0.114000 -0.018898 -4.167327 2.740564 -14.840828 0.122922 0.045205 -0.019046 -8.919553 -10.360796 -33.173259 0.255332 -0.015649 -0.022946 2.850096 -46.975770 17.679035 0.265709 0.012698 -0.007375 -0.841361 -4.501389 4.883542 0.086691 -0.010636 -0.015594 -6.039642 -2.584953 -10.464063 -0.082954 0.112472 -0.023707 2.930492 4.497615 10.135587 -0.113228 0.046853 -0.008472 19.928769 15.007604 39.391094 -0.260127 -0.014369 -0.031269 38.963712 63.788551 -24.191413 -0.269108 0.006793 -0.006027 3.627160 6.598415 -1.645653 -0.088754 -0.008652 -0.010107 -4.746360 5.970544 9.469004 
